<?xml version="1.0" encoding="iso-8859-1"?>

<!DOCTYPE svg PUBLIC "-//W3C//DTD SVG 1.1//EN" "http://www.w3.org/Graphics/SVG/1.1/DTD/svg11.dtd">
<!-- Uploaded to: SVG Repo, www.svgrepo.com, Generator: SVG Repo Mixer Tools -->
<svg fill="#000000" version="1.1" xmlns="http://www.w3.org/2000/svg" xmlns:xlink="http://www.w3.org/1999/xlink"  width="800px"
	 height="800px" viewBox="0 0 30 30" xml:space="preserve">
<g id="button-2">
	<path d="M15,0C6.716,0,0,6.716,0,15s6.716,15,15,15s15-6.716,15-15S23.284,0,15,0z M15,27C8.383,27,3,21.617,3,15S8.383,3,15,3
		s12,5.383,12,12S21.617,27,15,27z"/>
	<path d="M15,4.938C9.442,4.938,4.938,9.441,4.938,15c0,5.558,4.505,10.063,10.063,10.063S25.063,20.558,25.063,15
		S20.558,4.938,15,4.938z M10.998,20.983c-1.092,0-1.976-0.885-1.976-1.976s0.884-1.976,1.976-1.976
		c1.091,0,1.977,0.885,1.977,1.976S12.089,20.983,10.998,20.983z M10.998,13.015c-1.092,0-1.976-0.885-1.976-1.976
		s0.884-1.976,1.976-1.976c1.091,0,1.977,0.885,1.977,1.976S12.089,13.015,10.998,13.015z M19.01,20.983
		c-1.092,0-1.976-0.885-1.976-1.976s0.884-1.976,1.976-1.976c1.091,0,1.977,0.885,1.977,1.976S20.101,20.983,19.01,20.983z
		 M19.01,13.015c-1.092,0-1.976-0.885-1.976-1.976s0.884-1.976,1.976-1.976c1.091,0,1.977,0.885,1.977,1.976
		S20.101,13.015,19.01,13.015z"/>
</g>
<g id="Layer_1">
</g>
</svg>