<?xml version="1.0" encoding="iso-8859-1"?>
<!-- Uploaded to: SVG Repo, www.svgrepo.com, Generator: SVG Repo Mixer Tools -->
<svg fill="#000000" height="800px" width="800px" version="1.1" id="Layer_1" xmlns="http://www.w3.org/2000/svg" xmlns:xlink="http://www.w3.org/1999/xlink" 
	 viewBox="0 0 502 502" xml:space="preserve">
<g>
	<g>
		<g>
			<path d="M463.63,361.337c-11.958-15.031-28.726-25.824-47.214-30.391c-5.359-1.326-10.782,1.948-12.106,7.31
				c-1.325,5.362,1.948,10.782,7.31,12.106c29.952,7.398,50.87,34.067,50.87,64.854c0,36.824-29.959,66.783-66.784,66.783H106.294
				c-36.825,0-66.784-29.959-66.784-66.783s29.959-66.783,66.784-66.783h61.704v9.402c0,9.574,3.941,18.933,10.813,25.676
				c6.63,6.506,15.263,10.065,24.373,10.065c0.221,0,0.442-0.003,0.664-0.007c19.022-0.361,34.497-16.137,34.497-35.167v-52.889
				c4.41,2.135,9.322,3.375,14.497,3.473c9.355,0.197,18.246-3.395,25.038-10.059c6.872-6.743,10.813-16.102,10.813-25.676v-5.543
				c4.309,1.916,9.031,2.984,13.918,3.019c0.081,0,0.162,0.001,0.243,0.001c9.157-0.001,17.847-3.626,24.493-10.226
				c6.541-6.495,10.395-15.364,10.671-24.477c4.415,2.141,9.332,3.382,14.514,3.48c9.349,0.166,18.246-3.394,25.038-10.059
				c6.872-6.743,10.813-16.102,10.813-25.676V82.5c0-45.49-37.01-82.5-82.5-82.5H201.156c-48.267,0-87.535,39.269-87.535,87.535
				v122.15c0,10.861,4.467,21.519,12.255,29.24c7.679,7.613,17.727,11.715,28.307,11.664c4.808-0.042,9.468-0.919,13.813-2.546
				v80.39h-61.704c-47.853,0-86.784,38.931-86.784,86.783S58.44,502,106.294,502h289.414c47.853,0,86.784-38.931,86.784-86.783
				C482.492,395.76,475.792,376.625,463.63,361.337z M154.013,230.591c-5.2,0.085-10.191-2.039-14.053-5.867
				c-4.027-3.992-6.336-9.473-6.336-15.037V87.535c0-37.239,30.296-67.535,67.535-67.535h104.722c34.463,0,62.5,28.037,62.5,62.5
				v121.273c0,4.239-1.757,8.395-4.82,11.399c-2.927,2.873-6.683,4.428-10.65,4.339c-8.203-0.156-14.877-6.962-14.877-15.171v-23.16
				c0-5.522-4.477-10-10-10s-10,4.478-10,10v53.798h-0.003c0,4.188-1.742,8.318-4.78,11.335c-2.896,2.875-6.584,4.465-10.503,4.416
				c-6.234-0.043-11.846-3.99-14.057-9.74v-57.794c0-5.522-4.477-10-10-10s-10,4.478-10,10v90.059c0,4.239-1.757,8.395-4.82,11.399
				c-2.927,2.873-6.698,4.432-10.65,4.339c-8.203-0.156-14.876-6.962-14.876-15.171v-53.365c0-5.522-4.477-10-10-10
				c-5.523,0-10,4.478-10,10v137.948c0,8.209-6.674,15.015-14.876,15.171c-3.935,0.109-7.723-1.465-10.65-4.338
				c-3.063-3.006-4.82-7.161-4.82-11.4V150.973c0-5.522-4.477-10-10-10c-5.523,0-10,4.478-10,10v73.814
				C164.284,228.457,159.331,230.545,154.013,230.591z"/>
			<path d="M368.94,328.434h-92.875c-5.523,0-10,4.478-10,10c0,5.522,4.477,10,10,10h92.875c5.523,0,10-4.478,10-10
				C378.94,332.912,374.464,328.434,368.94,328.434z"/>
			<path d="M228.344,191.869c5.523,0,10-4.478,10-10v-15.992c0-5.522-4.477-10-10-10s-10,4.478-10,10v15.992
				C218.344,187.392,222.821,191.869,228.344,191.869z"/>
		</g>
	</g>
</g>
</svg>